<?xml version="1.0" encoding="UTF-8" standalone="no"?>
<!-- Created with Inkscape (http://www.inkscape.org/) -->

<svg
   width="82.096718mm"
   height="31.996222mm"
   viewBox="0 0 82.096716 31.99622"
   version="1.1"
   id="svg5"
   inkscape:version="1.1.1 (3bf5ae0d25, 2021-09-20)"
   sodipodi:docname="कुमाऊँनी.svg"
   xmlns:inkscape="http://www.inkscape.org/namespaces/inkscape"
   xmlns:sodipodi="http://sodipodi.sourceforge.net/DTD/sodipodi-0.dtd"
   xmlns="http://www.w3.org/2000/svg"
   xmlns:svg="http://www.w3.org/2000/svg">
  <sodipodi:namedview
     id="namedview7"
     pagecolor="#ffffff"
     bordercolor="#666666"
     borderopacity="1.0"
     inkscape:pageshadow="2"
     inkscape:pageopacity="0.0"
     inkscape:pagecheckerboard="0"
     inkscape:document-units="mm"
     showgrid="false"
     inkscape:zoom="2.2274261"
     inkscape:cx="129.74617"
     inkscape:cy="82.831031"
     inkscape:window-width="1920"
     inkscape:window-height="1017"
     inkscape:window-x="-8"
     inkscape:window-y="-8"
     inkscape:window-maximized="1"
     inkscape:current-layer="text2138" />
  <defs
     id="defs2" />
  <g
     inkscape:label="Layer 1"
     inkscape:groupmode="layer"
     id="layer1"
     transform="translate(-36.218432,-143.58745)">
    <g
       aria-label="गढ़वळि "
       id="text2138"
       style="font-size:25.7961px;line-height:1.25;font-family:Mukta;-inkscape-font-specification:Mukta;stroke-width:0.806127">
      <g
         aria-label="कुमाऊँनी"
         transform="scale(0.99213283,1.0079296)"
         id="text10689"
         style="font-size:27.2018px;stroke-width:1.95426">
        <path
           d="m 43.877316,163.4032 q -1.251283,0 -2.094538,-0.43523 -0.816054,-0.43523 -1.523301,-1.11527 -0.734449,-0.70725 -1.169678,-1.5505 -0.435228,-0.84326 -0.435228,-1.84973 0,-1.19688 0.598439,-2.06733 0.625642,-0.87046 1.577705,-1.33289 0.952063,-0.48963 2.012933,-0.48963 1.5233,0 2.556969,0.54403 1.06087,0.51684 1.740915,1.08807 v 1.25129 q -0.788852,-0.54404 -1.523301,-0.78886 -0.734448,-0.24481 -1.632108,-0.24481 -1.115274,0 -1.904126,0.46243 -0.788852,0.46243 -1.196879,1.16968 -0.408027,0.68004 -0.408027,1.41449 0,0.84326 0.59844,1.4961 0.598439,0.62564 1.795318,0.62564 1.36009,0 2.529768,-0.87046 1.196879,-0.89766 2.040135,-2.31215 v 3.0738 q -0.489633,0.73445 -1.441696,1.33289 -0.924861,0.59844 -2.12174,0.59844 z m 4.84192,3.59064 -1.795318,-1.30569 v -14.68897 h 2.040135 v 15.99466 z m 5.331553,-2.23055 -1.849722,-1.33289 q 0.408027,-0.54403 0.870457,-1.22408 0.489633,-0.68004 0.816054,-1.44169 0.353624,-0.78886 0.353624,-1.60491 0,-0.73445 -0.408027,-1.19688 -0.408027,-0.46243 -1.088072,-0.46243 -0.788853,0 -1.577705,0.48963 -0.788852,0.48964 -1.496099,1.19688 -0.707246,0.70725 -1.251282,1.33289 v -3.0738 q 0.707246,-0.70725 1.5233,-1.16968 0.843256,-0.48963 1.795319,-0.48963 0.870458,0 1.577704,0.35362 0.707247,0.35362 1.305687,0.89766 0.625641,0.59844 0.952063,1.41449 0.353623,0.81606 0.353623,1.95853 0,1.14248 -0.571238,2.33936 -0.544036,1.16967 -1.305686,2.01293 z M 37.5937,151.73363 l -1.088072,-1.5505 v -0.29922 H 56.93418 l 1.088072,1.6049 v 0.24482 z"
           style="font-family:'Noto Serif Devanagari';-inkscape-font-specification:'Noto Serif Devanagari'"
           id="path1658" />
        <path
           d="m 47.767158,174.20232 q -1.604906,0 -2.992198,-0.70725 -1.414494,-0.70725 -2.584171,-1.82252 -1.169677,-1.08807 -2.12174,-2.31216 l 1.332888,-1.11527 q 0.734449,1.16968 1.604906,2.17614 0.843256,1.03367 1.849722,1.65931 1.006467,0.65285 2.203346,0.65285 0.952063,0 1.713714,-0.43523 0.734448,-0.40803 1.196879,-1.08807 0.435229,-0.68005 0.435229,-1.4417 0,-0.65284 -0.353624,-0.97926 -0.353623,-0.29922 -1.006466,-0.29922 -0.59844,0 -1.169678,0.19041 -0.598439,0.21761 -1.387292,0.78885 l -1.305686,-1.74091 q 0.680045,-0.46243 1.36009,-0.76165 0.680045,-0.27202 1.441695,-0.27202 0.816054,0 1.550503,0.35362 0.734449,0.35363 1.251283,0.92486 0.544036,0.57124 0.843255,1.27849 0.29922,0.73445 0.29922,1.46889 0,1.08808 -0.544036,1.84973 -0.516834,0.78885 -1.441695,1.19688 -0.952063,0.43523 -2.176144,0.43523 z"
           style="font-family:'Noto Serif Devanagari';-inkscape-font-specification:'Noto Serif Devanagari'"
           id="path1660" />
        <path
           d="m 61.096015,162.42394 q -0.516835,0 -1.033669,-0.27202 -0.516834,-0.27202 -0.952063,-0.73445 -0.408027,-0.46243 -0.652843,-1.00647 -0.244816,-0.57124 -0.244816,-1.11527 0,-0.65284 0.326421,-0.92486 0.353624,-0.29922 0.89766,-0.38083 0.571238,-0.0816 1.169677,-0.0816 1.686512,0 3.237014,0.13601 1.550503,0.13601 2.638575,0.29922 1.115274,0.13601 1.36009,0.19041 v 1.5505 q -0.326422,-0.0272 -1.115274,-0.0272 -0.76165,-0.0272 -1.822521,-0.0544 -1.033668,-0.0272 -2.203345,-0.0272 -0.244816,0 -0.516834,0 -0.244817,0 -0.489633,0.0272 l 0.516834,-0.68005 v 1.84972 q 0,0.65285 -0.299219,0.95207 -0.29922,0.29922 -0.816054,0.29922 z m -0.924862,-3.67225 v -7.75251 h 2.040135 v 7.75251 z m 9.303016,8.24215 -1.768117,-1.30569 v -14.68897 h 2.040135 v 15.99466 z m -12.54003,-15.26021 -1.088072,-1.5505 v -0.29922 H 72.05834 l 1.088072,1.6049 v 0.24482 z"
           style="font-family:'Noto Serif Devanagari';-inkscape-font-specification:'Noto Serif Devanagari'"
           id="path1662" />
        <path
           d="m 76.165806,166.99384 -1.768117,-1.30569 v -14.68897 h 2.040135 v 15.99466 z m -4.107472,-15.26021 -1.088072,-1.57771 v -0.27201 h 7.779715 l 1.088072,1.6049 v 0.24482 z"
           style="font-family:'Noto Serif Devanagari';-inkscape-font-specification:'Noto Serif Devanagari'"
           id="path1664" />
        <path
           d="m 86.502444,166.477 q -1.224081,0 -2.502565,-0.68004 -1.251283,-0.70725 -2.475364,-2.25775 -1.196879,-1.5777 -2.257749,-4.18908 l 1.115273,-0.46243 q 0.408027,0.89766 0.952063,1.84972 0.571238,0.95207 1.251283,1.76812 0.707247,0.78885 1.550503,1.27849 0.843255,0.48963 1.849722,0.48963 1.36009,0 2.040135,-0.73445 0.680045,-0.73445 0.680045,-1.74092 0,-1.11527 -0.544036,-2.09453 -0.544036,-1.00647 -1.414494,-1.65931 l 1.006467,-0.54404 q 1.36009,1.00647 2.148942,2.36656 0.788852,1.36009 0.788852,2.63857 0,1.98573 -1.224081,2.9922 -1.224081,0.97926 -2.964996,0.97926 z m 7.806917,0.40803 -1.931328,-1.19688 q 1.169677,-1.14247 1.849722,-2.39376 0.707247,-1.25128 0.707247,-2.44816 0,-0.62564 -0.408027,-1.06087 -0.380825,-0.46243 -1.088072,-0.46243 -0.952063,0 -1.849722,0.51683 -0.89766,0.51684 -1.686512,1.14248 l -1.142475,-1.71371 q 0.707246,-0.54404 1.713713,-1.08807 1.033668,-0.57124 2.040135,-0.57124 0.843256,0 1.550502,0.35362 0.707247,0.35362 1.305687,0.97927 0.571238,0.59844 0.897659,1.38729 0.353624,0.78885 0.353624,1.68651 0,1.08807 -0.680045,2.44816 -0.680045,1.36009 -1.632108,2.42096 z m -9.547832,-7.5893 -1.033668,-2.06734 q 2.094538,-0.46243 3.318619,-1.27848 1.224081,-0.81606 1.224081,-2.01294 0,-0.78885 -0.326421,-1.38729 -0.326422,-0.62564 -1.033669,-1.22408 l 1.414494,-0.0816 q 0.707247,0.57123 1.169677,1.5233 0.462431,0.92486 0.462431,2.06733 0,1.55051 -1.278485,2.72018 -1.278484,1.14248 -3.917059,1.74092 z m -6.011598,-7.5621 -1.088072,-1.5505 v -0.29922 h 19.857314 l 1.088072,1.6049 v 0.24482 z"
           style="font-family:'Noto Serif Devanagari';-inkscape-font-specification:'Noto Serif Devanagari'"
           id="path1666" />
        <path
           d="m 87.019279,148.279 q -1.115273,0 -2.203345,-0.54404 -1.115274,-0.57123 -1.931328,-1.6321 -0.843256,-1.06087 -1.224081,-2.55697 l 1.033668,-0.38083 q 0.544036,1.5505 1.523301,2.44816 0.952063,0.89766 2.584171,0.89766 1.36009,0 2.257749,-0.84325 0.924862,-0.84326 1.251283,-2.77459 l 1.931328,0.51684 q -0.29922,1.63211 -1.06087,2.72018 -0.734449,1.08807 -1.822521,1.63211 -1.06087,0.51683 -2.339355,0.51683 z m -0.326421,-3.23701 q -1.224081,0 -1.224081,-1.30569 0,-1.27848 1.224081,-1.27848 1.196879,0 1.196879,1.27848 0,1.30569 -1.196879,1.30569 z"
           style="font-family:'Noto Serif Devanagari';-inkscape-font-specification:'Noto Serif Devanagari'"
           id="path1668" />
        <path
           d="m 101.38179,161.74389 q -0.59844,0 -1.16967,-0.29922 -0.571241,-0.29922 -1.033672,-0.76165 -0.435229,-0.48963 -0.707247,-1.03367 -0.244816,-0.57124 -0.244816,-1.11527 0,-0.76165 0.516834,-1.27849 0.544036,-0.51683 1.795321,-0.51683 1.4961,0 2.93779,0.13601 1.4689,0.10881 2.52977,0.27202 1.06087,0.13601 1.27848,0.19041 v 1.60491 q -0.29922,-0.0272 -0.89766,-0.0544 -0.59843,-0.0272 -1.38729,-0.0544 -0.78885,-0.0272 -1.65931,-0.0272 -0.35362,0 -0.62564,0 -0.24481,0 -0.76165,0.0544 l 0.46243,-0.24482 q 0.0544,0.19042 0.10881,0.70725 0.0816,0.48963 0.0816,1.06087 0,0.51684 -0.27201,0.95206 -0.27202,0.40803 -0.95207,0.40803 z m 7.5077,5.24995 -1.76812,-1.30569 v -14.68897 h 2.04014 v 15.99466 z m -11.370352,-15.26021 -1.088072,-1.5505 v -0.29922 h 15.042594 l 1.08807,1.6049 v 0.24482 z"
           style="font-family:'Noto Serif Devanagari';-inkscape-font-specification:'Noto Serif Devanagari'"
           id="path1670" />
        <path
           d="m 108.23661,150.21033 q -0.54404,-0.40803 -1.06087,-1.06087 -0.54404,-0.65285 -0.89766,-1.4689 -0.35363,-0.84326 -0.35363,-1.74091 0,-1.4417 0.89766,-2.44817 0.87046,-1.00646 2.44817,-1.00646 1.44169,0 2.50256,0.73445 1.08807,0.73444 1.84972,1.90412 0.76165,1.16968 1.27849,2.47537 0.51683,1.30568 0.84325,2.44816 h -1.19688 q -0.51683,-1.71372 -1.19687,-2.9378 -0.68005,-1.25128 -1.4961,-1.90412 -0.81606,-0.65285 -1.76812,-0.65285 -1.03367,0 -1.63211,0.59844 -0.59844,0.59844 -0.59844,1.74092 0,0.76165 0.40803,1.71371 0.38082,0.92486 1.06087,1.60491 z m 7.34448,16.78351 -1.76811,-1.30569 v -14.68897 h 2.04013 v 15.99466 z m -4.10747,-15.26021 -1.08807,-1.5505 v -0.29922 h 7.77971 l 1.08808,1.6049 v 0.24482 z"
           style="font-family:'Noto Serif Devanagari';-inkscape-font-specification:'Noto Serif Devanagari'"
           id="path1672" />
      </g>
    </g>
  </g>
</svg>
