<svg xmlns="http://www.w3.org/2000/svg" width="200" height="200" fill="#ff9800" preserveAspectRatio="xMidYMid" style="background:0 0" viewBox="0 0 100 100"><rect width="6" height="12" x="47" y="24" rx="3" ry="6"><animate attributeName="opacity" begin="-0.9090909090909091s" dur="1s" keyTimes="0;1" repeatCount="indefinite" values="1;0"/></rect><rect width="6" height="12" x="47" y="24" rx="3" ry="6" transform="rotate(32.727 50 50)"><animate attributeName="opacity" begin="-0.8181818181818182s" dur="1s" keyTimes="0;1" repeatCount="indefinite" values="1;0"/></rect><rect width="6" height="12" x="47" y="24" rx="3" ry="6" transform="rotate(65.455 50 50)"><animate attributeName="opacity" begin="-0.7272727272727273s" dur="1s" keyTimes="0;1" repeatCount="indefinite" values="1;0"/></rect><rect width="6" height="12" x="47" y="24" rx="3" ry="6" transform="rotate(98.182 50 50)"><animate attributeName="opacity" begin="-0.6363636363636364s" dur="1s" keyTimes="0;1" repeatCount="indefinite" values="1;0"/></rect><rect width="6" height="12" x="47" y="24" rx="3" ry="6" transform="rotate(130.91 50 50)"><animate attributeName="opacity" begin="-0.5454545454545454s" dur="1s" keyTimes="0;1" repeatCount="indefinite" values="1;0"/></rect><rect width="6" height="12" x="47" y="24" rx="3" ry="6" transform="rotate(163.636 50 50)"><animate attributeName="opacity" begin="-0.45454545454545453s" dur="1s" keyTimes="0;1" repeatCount="indefinite" values="1;0"/></rect><rect width="6" height="12" x="47" y="24" rx="3" ry="6" transform="rotate(196.364 50 50)"><animate attributeName="opacity" begin="-0.36363636363636365s" dur="1s" keyTimes="0;1" repeatCount="indefinite" values="1;0"/></rect><rect width="6" height="12" x="47" y="24" rx="3" ry="6" transform="rotate(229.09 50 50)"><animate attributeName="opacity" begin="-0.2727272727272727s" dur="1s" keyTimes="0;1" repeatCount="indefinite" values="1;0"/></rect><rect width="6" height="12" x="47" y="24" rx="3" ry="6" transform="rotate(261.818 50 50)"><animate attributeName="opacity" begin="-0.18181818181818182s" dur="1s" keyTimes="0;1" repeatCount="indefinite" values="1;0"/></rect><rect width="6" height="12" x="47" y="24" rx="3" ry="6" transform="rotate(294.545 50 50)"><animate attributeName="opacity" begin="-0.09090909090909091s" dur="1s" keyTimes="0;1" repeatCount="indefinite" values="1;0"/></rect><rect width="6" height="12" x="47" y="24" rx="3" ry="6" transform="rotate(327.273 50 50)"><animate attributeName="opacity" begin="0s" dur="1s" keyTimes="0;1" repeatCount="indefinite" values="1;0"/></rect></svg>